<svg width="130" height="92" viewBox="0 0 130 92" fill="none" xmlns="http://www.w3.org/2000/svg">
<rect width="130" height="92" fill="#24292E"/>
<g filter="url(#filter0_d)">
<path d="M37.2643 26.5C37.2643 28.61 36.9843 30.35 36.4243 31.72C35.8743 33.09 35.1243 34.16 34.1743 34.93C33.2243 35.69 32.1443 36.225 30.9343 36.535C29.7343 36.845 28.4893 37 27.1993 37H21.5893V16.21H26.8393C28.1693 16.21 29.4543 16.35 30.6943 16.63C31.9443 16.9 33.0593 17.405 34.0393 18.145C35.0293 18.875 35.8143 19.915 36.3943 21.265C36.9743 22.605 37.2643 24.35 37.2643 26.5ZM32.1643 26.5C32.1643 24.63 31.9593 23.215 31.5493 22.255C31.1493 21.295 30.5993 20.645 29.8993 20.305C29.2093 19.955 28.4293 19.78 27.5593 19.78H26.5093V33.445H27.5593C28.4693 33.445 29.2693 33.25 29.9593 32.86C30.6493 32.46 31.1893 31.755 31.5793 30.745C31.9693 29.735 32.1643 28.32 32.1643 26.5ZM44.2276 30.415C44.3876 31.715 44.8126 32.65 45.5026 33.22C46.1926 33.78 47.0426 34.06 48.0526 34.06C48.7826 34.06 49.4876 33.94 50.1676 33.7C50.8476 33.46 51.5026 33.14 52.1326 32.74L54.0376 35.32C53.2876 35.96 52.3776 36.485 51.3076 36.895C50.2476 37.305 49.0376 37.51 47.6776 37.51C45.8576 37.51 44.3326 37.15 43.1026 36.43C41.8726 35.7 40.9476 34.7 40.3276 33.43C39.7076 32.16 39.3976 30.7 39.3976 29.05C39.3976 27.48 39.6976 26.055 40.2976 24.775C40.8976 23.485 41.7726 22.46 42.9226 21.7C44.0826 20.93 45.4976 20.545 47.1676 20.545C48.6876 20.545 50.0026 20.87 51.1126 21.52C52.2326 22.17 53.0976 23.105 53.7076 24.325C54.3276 25.545 54.6376 27.01 54.6376 28.72C54.6376 28.99 54.6276 29.28 54.6076 29.59C54.5976 29.9 54.5776 30.175 54.5476 30.415H44.2276ZM47.1676 23.725C46.3176 23.725 45.6326 24.03 45.1126 24.64C44.5926 25.25 44.2776 26.225 44.1676 27.565H50.0176C50.0076 26.405 49.7826 25.475 49.3426 24.775C48.9026 24.075 48.1776 23.725 47.1676 23.725ZM73.1359 21.07L67.8259 37H62.2459L56.8759 21.07H61.9909L65.0959 33.37L68.3359 21.07H73.1359ZM97.9524 17.53L107.027 27.61L97.9524 37.69L94.8474 35.02L96.9474 32.74C97.5474 32.07 98.1374 31.475 98.7174 30.955C99.2974 30.425 99.8924 29.955 100.502 29.545H77.2374V25.675H100.547C99.9074 25.275 99.3024 24.81 98.7324 24.28C98.1624 23.75 97.5674 23.15 96.9474 22.48L94.8474 20.2L97.9524 17.53ZM23.0534 56.53L13.9784 66.61L23.0534 76.69L26.1584 74.02L24.0584 71.74C23.4584 71.07 22.8684 70.475 22.2884 69.955C21.7084 69.425 21.1134 68.955 20.5034 68.545H43.7684V64.675H20.4584C21.0984 64.275 21.7034 63.81 22.2734 63.28C22.8434 62.75 23.4384 62.15 24.0584 61.48L26.1584 59.2L23.0534 56.53ZM49.8017 76V55.21H54.7217V72.115H63.7367L63.2267 76H49.8017ZM73.97 51.73C74.79 51.73 75.46 51.985 75.98 52.495C76.5 53.005 76.76 53.64 76.76 54.4C76.76 55.16 76.5 55.8 75.98 56.32C75.46 56.83 74.79 57.085 73.97 57.085C73.14 57.085 72.46 56.83 71.93 56.32C71.41 55.8 71.15 55.16 71.15 54.4C71.15 53.64 71.41 53.005 71.93 52.495C72.46 51.985 73.14 51.73 73.97 51.73ZM76.835 60.07V72.76H80.885V76H67.58V72.76H72.095V63.31H67.73V60.07H76.835ZM85.0883 76V60.07H89.2283L89.5583 61.915C90.2683 61.115 91.0183 60.52 91.8083 60.13C92.5983 59.74 93.4983 59.545 94.5083 59.545C95.8683 59.545 96.9383 59.96 97.7183 60.79C98.4983 61.62 98.8883 62.79 98.8883 64.3V76H94.1483V65.665C94.1483 64.685 94.0383 64.005 93.8183 63.625C93.6083 63.235 93.2083 63.04 92.6183 63.04C92.1183 63.04 91.6383 63.2 91.1783 63.52C90.7283 63.84 90.2783 64.285 89.8283 64.855V76H85.0883ZM107.817 53.245V76H103.077V53.74L107.817 53.245ZM118.197 60.07L112.962 67.12L118.632 76H113.232L107.997 67.27L113.232 60.07H118.197Z" fill="white"/>
</g>
<defs>
<filter id="filter0_d" x="9.97844" y="16.21" width="112.653" height="68.48" filterUnits="userSpaceOnUse" color-interpolation-filters="sRGB">
<feFlood flood-opacity="0" result="BackgroundImageFix"/>
<feColorMatrix in="SourceAlpha" type="matrix" values="0 0 0 0 0 0 0 0 0 0 0 0 0 0 0 0 0 0 127 0"/>
<feOffset dy="4"/>
<feGaussianBlur stdDeviation="2"/>
<feColorMatrix type="matrix" values="0 0 0 0 0 0 0 0 0 0 0 0 0 0 0 0 0 0 0.5 0"/>
<feBlend mode="normal" in2="BackgroundImageFix" result="effect1_dropShadow"/>
<feBlend mode="normal" in="SourceGraphic" in2="effect1_dropShadow" result="shape"/>
</filter>
</defs>
</svg>
